/* XPM */
static char * maximize_active_xpm[] = {
"30 30 3 1",
" 	c None",
".	c #color_2",
"+	c #FFFFFF",
"..............................",
"..............................",
"..............................",
"..............................",
"..............................",
"..............................",
"..............................",
"..............................",
"..............................",
"..............................",
".........+++++++++++..........",
".........+.........+..........",
".........+.........+..........",
".........+.........+..........",
".........+.........+..........",
".........+.........+..........",
".........+.........+..........",
".........+.........+..........",
".........+.........+..........",
".........+.........+..........",
".........+++++++++++..........",
"..............................",
"..............................",
"..............................",
"..............................",
"..............................",
"..............................",
"..............................",
"..............................",
".............................."};
