/* XPM */
static char * close_prelight_xpm[] = {
"24 24 3 1",
" 	c None",
".	c #color_bg",
"+	c #color_1",
"........................",
"........................",
"........................",
"........................",
"........................",
"........................",
"........................",
".......++.......++......",
"........++.....++.......",
".........++...++........",
"..........++.++.........",
"...........+++..........",
"...........+++..........",
"..........++.++.........",
".........++...++........",
"........++.....++.......",
".......++.......++......",
"........................",
"........................",
"........................",
"........................",
"........................",
"........................",
"........................"};
