/* XPM */
static char * close_active_xpm[] = {
"38 24 4 1",
" 	c None",
".	c #color_bg",
"+	c #color_1",
"@  c #color_7",
".........++@++++++++++++++@++.........",
".........++@++++++++++++++@++.........",
".........++@++++++++++++++@++.........",
".........++@++++++++++++++@++.........",
".........++@++++++++++++++@++.........",
".........++@++++++@@++++++@++.........",
".........++@+++++@++@+++++@++.........",
".........++@++++@++++@++++@++.........",
".........++@+++@++++++@+++@++.........",
".........++@++@+++..+++@++@++.........",
".........++@+@+++....+++@+@++.........",
".........++@@+++......+++@@++.........",
".........++@+++........+++@++.........",
".........+++++..........+++++.........",
".........++++............++++.........",
".........+++..............+++.........",
".........++................++.........",
".........+..................+.........",
"......................................",
"......................................",
"......................................",
"......................................",
"......................................",
"......................................"};
