/* XPM */
static char * hide_active_xpm[] = {
"35 27 3 1",
" 	c None",
".	c #color_bg",
"+	c #color_3",
".....++++++++++++++++++++++++++++++",
".....++++++++++++++++++++++++++++++",
".....++++++++++++++++++++++++++++++",
".....++++++++++++++++++++++++++++++",
".....++++++++++++++++++++++++++++++",
"+++++++++++++++++++++++++++++++++++",
"+++++++++++++++++++++++++++++++++++",
"+++++++++++++++++++++++++++++++++++",
"+++++++++++++++++++++++++++++++++++",
"+++++++++++++++++++++++++++++++++++",
"+++++++++++++++++++++++++++++++++++",
".....+++++++++++++++...............",
".....+++++++++++++++...............",
".....+++++++++++++++...............",
".....+++++++++++++++...............",
".....+++++++++++++++...............",
"+++++++++++++++++++++++++.....+++++",
"+++++++++++++++++++++++++.....+++++",
"+++++++++++++++++++++++++.....+++++",
"+++++++++++++++++++++++++.....+++++",
"+++++++++++++++++++++++++.....+++++",
"+++++++++++++++++++++++++++++++++++",
".....++++++++++++++++++++++++++++++",
".....++++++++++++++++++++++++++++++",
".....++++++++++++++++++++++++++++++",
".....++++++++++++++++++++++++++++++",
".....++++++++++++++++++++++++++++++"};
