/* XPM */
static char * maximize_inactive_xpm[] = {
"35 27 3 1",
" 	c None",
".	c #color_3",
"+	c #color_bg",
"...................................",
"...................................",
"...................................",
"...................................",
"...................................",
"...................................",
"..................+++++............",
"..................+++++............",
"..................+++++............",
"..................+++++............",
"..................+++++............",
"..................++++++++++.......",
"..................++++++++++.......",
"..................++++++++++.......",
"..................++++++++++.......",
"..................++++++++++.......",
".......................+++++.......",
".......................+++++.......",
".......................+++++.......",
".......................+++++.......",
".......................+++++.......",
"...................................",
"...................................",
"...................................",
"...................................",
"...................................",
"..................................."};
