/* XPM */
static char * top_right_inactive_xpm[] = {
"15 27 2 1",
" 	c None",
".	c #color_3",
".............  ",
".............  ",
".............  ",
".............  ",
".............  ",
".............  ",
".............  ",
".............  ",
".............  ",
".............  ",
".............  ",
".............  ",
".............  ",
".............  ",
".............  ",
".............  ",
".............  ",
".............  ",
".............  ",
".............  ",
".............  ",
".............  ",
".............  ",
".............  ",
".............  ",
".............  ",
".............  "};
