/* XPM */
static char * top_left_active_xpm[] = {
"15 27 2 1",
" 	c None",
".	c #color_bg",
"  .............",
"  .............",
"  .............",
"  .............",
"  .............",
"  .............",
"  .............",
"  .............",
"  .............",
"  .............",
"  .............",
"  .............",
"  .............",
"  .............",
"  .............",
"  .............",
"  .............",
"  .............",
"  .............",
"  .............",
"  .............",
"  .............",
"  .............",
"  .............",
"  .............",
"  .............",
"  ............."};
