/* XPM */
static char * close_active_xpm[] = {
"33 22 3 1",
" 	c None",
".	c #color_1",
"-	c #color_7",
".................................",
".................................",
".................................",
".................................",
"....---...---....................",
"....---...---....................",
"....---...---....................",
"...---...---.....................",
"...---...---.....................",
"...---...---.....................",
"..---...---......................",
"..---...---......................",
"..---...---......................",
".---...---.......................",
".---...---.......................",
".---...---.......................",
".................................",
".................................",
".................................",
".................................",
".................................",
"................................."};
