#define max_width 18
#define max_height 18
static unsigned char max_bits[] = {
   0x00, 0x00, 0x00, 0x00, 0x00, 0x00, 0x00, 0x00, 0x00, 0xc0, 0x0f, 0x00,
   0xf0, 0x3f, 0x00, 0xf0, 0x3f, 0x00, 0xf8, 0x7f, 0x00, 0xf8, 0x7f, 0x00,
   0xf8, 0x7f, 0x00, 0xf8, 0x7f, 0x00, 0xf8, 0x7f, 0x00, 0xf8, 0x7f, 0x00,
   0xf0, 0x3f, 0x00, 0xf0, 0x3f, 0x00, 0xc0, 0x0f, 0x00, 0x00, 0x00, 0x00,
   0x00, 0x00, 0x00, 0x00, 0x00, 0x00 };
