/* XPM */
static char * hah_xpm[] = {
"15 25 3 1",
" 	c None",
".	c #color_bg",
"+	c #color_1",
"...............",
"...............",
"...............",
"...............",
"...............",
"...............",
"...............",
"...............",
"...+......+....",
"....+.++.+.....",
".....+..+......",
"....+.++.+.....",
"....+.++.+.....",
".....+..+......",
"....+.++.+.....",
"...+......+....",
"...............",
"...............",
"...............",
"...............",
"...............",
"...............",
"...............",
"...............",
"..............."};
