/* XPM */
static char * maximize_actjs_xpm[] = {
"15 25 3 1",
" 	c None",
".	c #color_bg",
"+	c #color_7",
"...............",
"...............",
"...............",
"...............",
"...............",
"...............",
"...............",
"...............",
"...............",
".......++......",
"......+..+.....",
".....+.++.+....",
".....+.++.+....",
"......+..+.....",
".....+.++.+....",
"....+......+...",
"...............",
"...............",
"...............",
"...............",
"...............",
"...............",
"...............",
"...............",
"..............."};
