/* XPM */
static char * top_right_inactive_xpm[] = {
"15 22 2 1",
" 	c None",
".	c #color_bg",
"............   ",
".............  ",
".............  ",
".............  ",
".............  ",
".............  ",
".............  ",
".............  ",
".............  ",
".............  ",
".............  ",
".............  ",
".............  ",
".............  ",
".............  ",
".............  ",
".............  ",
".............  ",
".............  ",
".............  ",
".............  ",
".............  "};
