/* XPM */
static char * top_right_active_xpm[] = {
"15 22 3 1",
" 	c None",
".	c #color_1",
"+	c #color_bg",
"............   ",
".............  ",
"+++++++++++++  ",
"+++++++++++++  ",
"+++++++++++++  ",
"+++++++++++++  ",
"+++++++++++++  ",
"+++++++++++++  ",
"+++++++++++++  ",
"+++++++++++++  ",
"+++++++++++++  ",
"+++++++++++++  ",
"+++++++++++++  ",
"+++++++++++++  ",
"+++++++++++++  ",
"+++++++++++++  ",
"+++++++++++++  ",
"+++++++++++++  ",
"+++++++++++++  ",
"+++++++++++++  ",
"+++++++++++++  ",
"+++++++++++++  "};
